<?xml version="1.0" standalone="no"?>
<!DOCTYPE svg PUBLIC "-//W3C//DTD SVG 20010904//EN"
 "http://www.w3.org/TR/2001/REC-SVG-20010904/DTD/svg10.dtd">
<svg version="1.0" xmlns="http://www.w3.org/2000/svg"
 width="1700.000000pt" height="1700.000000pt" viewBox="0 0 1700.000000 1700.000000"
 preserveAspectRatio="xMidYMid meet">
<metadata>
Created by potrace 1.14, written by Peter Selinger 2001-2017
</metadata>
<g transform="translate(0.000000,1700.000000) scale(0.100000,-0.100000)"
fill="#000000" stroke="none">
<path d="M7510 16828 c-69 -20 -170 -119 -170 -168 0 -9 -4 -20 -10 -26 -13
-13 -58 -187 -66 -254 -22 -194 3 -407 72 -610 63 -186 215 -449 350 -607 49
-56 185 -195 235 -238 19 -16 53 -46 75 -65 22 -19 55 -46 74 -60 19 -14 48
-37 64 -51 57 -48 136 -103 446 -314 446 -303 607 -444 755 -660 120 -176 167
-345 141 -515 -3 -14 -5 -28 -5 -32 -1 -4 -38 -26 -83 -49 -863 -434 -1301
-1002 -1365 -1774 -12 -144 -6 -431 11 -522 4 -17 13 -76 22 -138 24 -156 151
-567 233 -750 10 -22 33 -76 52 -120 18 -44 39 -89 46 -100 7 -11 13 -23 13
-28 0 -13 -1351 5 -1700 22 l-25 2 30 27 c85 78 182 214 255 360 48 95 112
272 125 342 42 247 48 421 20 560 -3 14 -7 39 -9 56 -11 87 -84 291 -149 414
-80 151 -146 247 -347 505 -144 184 -242 328 -280 409 -28 62 -66 175 -75 225
-3 14 -7 37 -10 51 -14 64 -20 251 -11 321 3 19 8 52 11 74 18 127 113 357
253 610 258 469 354 693 411 965 61 290 42 591 -51 810 -61 143 -141 263 -243
365 -96 96 -109 106 -201 161 -163 96 -368 140 -514 109 -55 -11 -114 -54
-151 -108 -32 -47 -34 -54 -34 -136 0 -81 2 -89 33 -133 39 -57 83 -91 137
-108 103 -32 171 -90 224 -190 100 -189 85 -386 -52 -670 -55 -116 -85 -165
-225 -380 -149 -227 -252 -390 -285 -450 -174 -319 -252 -546 -284 -830 -15
-132 -7 -446 14 -529 3 -13 7 -31 8 -40 12 -122 86 -342 170 -511 88 -177 185
-318 325 -474 36 -41 41 -46 143 -159 34 -37 91 -98 126 -135 64 -67 173 -205
200 -252 25 -44 61 -110 61 -115 0 -3 2 -10 5 -17 36 -117 39 -134 39 -288 0
-168 -21 -271 -85 -402 -45 -94 -122 -210 -173 -260 -29 -29 -53 -91 -55 -140
-1 -19 20 -18 -351 -3 -159 6 -223 10 -575 31 -90 5 -144 8 -375 20 -69 3
-138 7 -155 8 -26 2 -143 -14 -200 -28 -51 -11 -146 -53 -207 -90 -139 -85
-236 -190 -307 -333 -46 -91 -60 -139 -80 -263 -9 -61 -6 -3990 4 -4110 4 -52
9 -104 10 -115 2 -11 8 -60 14 -109 7 -50 21 -135 32 -190 11 -56 23 -113 25
-128 3 -15 21 -82 40 -150 19 -68 36 -131 38 -140 10 -38 87 -248 116 -318 66
-152 77 -177 119 -260 135 -265 327 -552 514 -765 64 -73 292 -303 367 -370
69 -61 214 -176 305 -241 82 -59 261 -174 271 -174 4 0 21 -10 38 -23 36 -26
288 -153 391 -197 l70 -29 -1175 -1 c-646 0 -1193 -3 -1215 -6 -212 -27 -371
-224 -358 -444 4 -66 33 -147 72 -204 26 -37 369 -384 591 -597 137 -132 237
-203 397 -283 93 -47 288 -111 370 -122 26 -3 71 -10 98 -15 58 -9 7158 -7
7195 3 14 4 43 9 65 13 91 13 258 69 370 124 212 104 261 146 784 664 95 95
185 190 200 212 117 171 91 401 -61 543 -50 48 -130 90 -190 100 -24 4 -579 7
-1235 7 -656 0 -1189 3 -1185 7 4 4 31 16 60 27 124 49 493 242 530 278 6 6
21 15 32 18 11 3 20 10 20 14 0 4 10 12 23 18 22 10 156 104 207 146 15 12 40
31 54 41 15 11 37 28 49 38 12 11 44 38 72 61 27 23 122 114 210 202 278 280
489 564 664 898 28 54 55 105 61 115 8 15 40 87 75 167 61 141 153 418 189
564 8 35 17 66 20 68 2 2 21 -3 42 -12 94 -40 311 -111 327 -107 4 1 16 -2 26
-7 10 -6 33 -13 52 -16 19 -3 47 -8 62 -11 35 -7 56 -10 127 -19 30 -3 66 -8
80 -11 45 -9 373 -12 450 -4 145 15 186 21 299 46 133 30 264 69 376 114 84
33 282 128 302 145 6 6 38 25 70 43 232 131 523 405 707 667 31 44 61 85 66
92 6 7 10 14 10 17 0 3 14 29 32 58 52 88 142 274 164 343 2 6 20 57 40 115
20 58 38 115 40 128 3 12 13 59 24 105 10 45 22 105 25 132 4 28 8 57 10 65
28 107 21 582 -10 700 -3 8 -7 31 -10 50 -23 147 -89 359 -166 537 -38 86 -64
136 -154 292 -59 102 -224 308 -341 425 -106 106 -339 296 -363 296 -5 0 -11
7 -15 15 -3 8 -10 15 -16 15 -6 0 -29 11 -51 26 -99 62 -207 117 -351 178
-190 80 -453 142 -688 163 -138 12 -445 5 -525 -12 -11 -2 -37 -7 -58 -10 -50
-7 -173 -32 -214 -44 -18 -5 -33 -8 -33 -7 0 2 -48 -13 -107 -34 -60 -20 -114
-38 -122 -41 -12 -3 -15 14 -16 91 -4 207 -29 307 -116 460 -43 76 -157 197
-238 253 -97 66 -245 123 -350 133 -96 9 -158 8 -461 -11 -36 -2 -117 -7 -180
-10 -63 -3 -138 -8 -167 -11 -51 -5 -52 -5 -76 33 -36 56 -73 86 -162 134
-267 141 -549 366 -726 579 -30 36 -56 67 -59 70 -11 10 -108 147 -144 204
-37 58 -86 151 -140 268 -29 61 -103 272 -110 314 -3 13 -8 34 -11 45 -4 12
-8 31 -10 42 -1 12 -7 47 -13 77 -32 160 -43 353 -31 534 9 116 10 127 35 256
9 47 18 98 21 113 6 31 5 31 243 133 73 32 402 195 410 204 3 3 43 27 90 54
227 129 480 344 650 551 64 78 190 266 190 284 0 6 4 11 8 11 4 0 13 12 19 28
7 15 24 54 38 87 74 168 123 341 140 490 8 69 8 288 0 325 -3 14 -8 45 -11 70
-5 37 -23 132 -39 200 -26 114 -148 376 -240 515 -166 252 -448 518 -700 660
-258 145 -443 220 -805 325 -169 49 -625 136 -760 145 -34 2 -119 -18 -155
-37 -103 -55 -152 -196 -106 -305 39 -88 63 -104 369 -233 298 -126 407 -175
567 -255 108 -55 242 -132 263 -152 7 -7 17 -13 22 -13 23 0 254 -187 331
-268 135 -142 254 -328 304 -477 16 -49 19 -58 33 -120 9 -38 7 -251 -2 -288
-25 -102 -94 -237 -173 -335 -97 -122 -290 -283 -440 -370 -92 -53 -98 -55
-101 -26 -4 48 -75 243 -127 349 -168 343 -447 646 -833 903 -51 34 -94 62
-97 62 -2 0 -39 22 -82 48 -43 27 -170 100 -283 162 -113 62 -218 121 -235
131 -16 10 -52 30 -80 45 -27 14 -81 46 -118 70 -37 24 -71 44 -76 44 -4 0
-16 9 -26 20 -10 11 -22 20 -27 20 -10 0 -151 105 -208 155 -165 144 -309 348
-364 519 -34 104 -40 150 -38 286 3 151 -8 191 -72 255 -71 70 -150 91 -246
63z m1774 -4913 c11 -159 49 -402 77 -490 5 -16 23 -77 40 -135 17 -58 47
-145 66 -195 33 -84 151 -334 163 -345 3 -3 19 -27 34 -55 43 -74 130 -198
211 -300 167 -209 475 -480 670 -587 28 -15 48 -28 45 -29 -14 -3 -140 -8
-370 -13 -140 -4 -343 -9 -450 -12 -211 -6 -800 -12 -800 -9 0 1 -18 82 -39
181 -22 98 -42 190 -45 204 -2 14 -10 50 -16 80 -6 30 -14 69 -16 85 -3 17 -9
53 -14 80 -11 58 -27 176 -35 255 -4 30 -8 69 -10 85 -6 44 -6 313 0 365 15
131 23 180 42 255 8 33 16 65 17 70 14 74 87 233 149 326 51 77 261 290 272
277 1 -2 5 -43 9 -93z m4931 -4029 c28 -3 61 -7 75 -11 14 -3 36 -7 50 -10 55
-11 67 -14 130 -35 352 -120 633 -398 753 -745 26 -75 46 -151 53 -200 2 -16
6 -41 9 -55 7 -32 7 -257 0 -290 -3 -14 -7 -39 -9 -56 -8 -52 -47 -199 -57
-208 -5 -6 -9 -16 -9 -24 0 -28 -81 -181 -139 -262 -154 -215 -336 -354 -576
-443 -238 -87 -520 -95 -760 -21 -105 33 -305 127 -325 154 -3 3 -25 20 -50
38 -25 17 -67 51 -95 76 l-50 44 -1 843 0 844 31 30 c167 163 403 281 636 319
135 22 195 25 334 12z"/>
</g>
</svg>
